<?xml version="1.0" encoding="utf-8"?>
<!-- Generator: Adobe Illustrator 15.1.0, SVG Export Plug-In . SVG Version: 6.00 Build 0)  -->
<!DOCTYPE svg PUBLIC "-//W3C//DTD SVG 1.1//EN" "http://www.w3.org/Graphics/SVG/1.1/DTD/svg11.dtd">
<svg version="1.1" id="Layer_1" xmlns="http://www.w3.org/2000/svg" xmlns:xlink="http://www.w3.org/1999/xlink" x="0px" y="0px"
	 width="250px" height="38px" viewBox="0 0 250 38" enable-background="new 0 0 250 38" xml:space="preserve">
<g>
	<path fill="#035291" d="M64.811,7.467c-2.26-7.652-17.244-9.846-33.463-4.9c-0.768,0.233-1.518,0.483-2.265,0.741
		c14.508-3.411,27.108-1.165,29.101,5.587c2.197,7.398-9.178,17.401-25.4,22.342c-0.374,0.114-0.734,0.223-1.107,0.327L39.238,5.06
		l-0.036,0.003l0.019-0.003L37.239,5.2c-3.705,0.372-7.652,1.157-11.679,2.386c-16.225,4.943-27.538,15.15-25.271,22.8
		c2.26,7.647,17.247,9.836,33.471,4.892c0.763-0.234,1.517-0.479,2.26-0.736C21.508,37.954,8.91,35.707,6.914,28.959
		c-2.19-7.405,9.18-17.408,25.408-22.353c0.34-0.106,0.682-0.201,1.019-0.302l-7.456,26.479l1.978-0.135
		c3.709-0.37,7.654-1.163,11.685-2.386C55.765,25.317,67.079,15.107,64.811,7.467"/>
	<path fill="#010101" d="M77.613,15.917c1.825-0.198,3.744-0.294,5.728-0.294c3.428,0,6.102,0.411,7.833,1.334
		c1.794,0.881,2.831,2.192,2.831,4.053c0,2.588-1.73,4.918-4.341,6.229c-2.454,1.232-5.569,1.764-10.164,1.764
		c-2.546,0-4.749-0.139-5.82-0.257L77.613,15.917z M78.902,26.632c0.535,0.057,1.197,0.078,1.982,0.078
		c2.456,0,4.626-0.529,6.01-1.528c1.447-1.02,2.203-2.409,2.203-4.073c0-2.095-1.826-3.234-5.506-3.234
		c-0.882,0-1.543,0.041-2.015,0.098L78.902,26.632z"/>
	<path fill="#010101" d="M106.592,25.477l-2.486,3.428h-4.846l10.351-13.203h5.822l2.454,13.203h-4.75l-0.441-3.428H106.592z
		 M112.506,23.322l-0.409-2.842c-0.093-0.726-0.189-1.783-0.284-2.585h-0.093c-0.535,0.803-1.133,1.821-1.699,2.585l-2.078,2.842
		H112.506z"/>
	<path fill="#010101" d="M127.104,28.904l4.028-13.204h5.316l2.8,5.035c0.849,1.684,1.416,3.056,1.92,4.504h0.095
		c0.095-1.352,0.409-2.799,0.973-4.739l1.448-4.8h4.249l-4.028,13.204h-4.686l-2.961-5.27c-0.94-1.804-1.508-2.996-2.075-4.605
		h-0.096c-0.219,1.293-0.721,3.154-1.352,5.25l-1.413,4.624H127.104z"/>
	<path fill="#010101" d="M160.833,25.477l-2.486,3.428H153.5l10.354-13.203h5.82l2.453,13.203h-4.749l-0.44-3.428H160.833z
		 M166.747,23.322l-0.411-2.842c-0.09-0.726-0.185-1.783-0.28-2.585h-0.093c-0.536,0.803-1.135,1.821-1.699,2.585l-2.076,2.842
		H166.747z"/>
	<polygon fill="#010101" points="189.907,15.701 188.332,20.832 196.008,20.832 197.582,15.701 202.144,15.701 198.115,28.904 
		193.587,28.904 195.255,23.341 187.548,23.341 185.877,28.904 181.349,28.904 185.373,15.701 	"/>
	<polygon fill="#010101" points="223.005,23.281 215.483,23.281 214.511,26.492 222.973,26.492 222.219,28.904 209.223,28.904 
		213.251,15.7 225.807,15.7 225.049,18.108 217.056,18.108 216.178,20.91 223.761,20.91 	"/>
	<path fill="#010101" d="M236.408,15.955c1.413-0.215,3.556-0.333,5.665-0.333c2.009,0,4.09,0.174,5.566,0.765
		c1.384,0.508,2.36,1.333,2.36,2.565c0,1.959-2.076,3.174-4.813,3.723v0.058c1.257,0.353,1.822,1.216,2.013,2.412
		c0.284,1.487,0.44,3.211,0.819,3.76h-4.657c-0.188-0.352-0.41-1.489-0.598-3.113c-0.222-1.608-1.101-2.101-2.894-2.101h-1.385
		l-1.573,5.214h-4.468L236.408,15.955z M239.177,21.577h1.856c2.453,0,4.247-0.922,4.247-2.215c0-1.057-1.415-1.524-3.24-1.524
		c-0.85,0-1.386,0.037-1.763,0.097L239.177,21.577z"/>
</g>
</svg>
