<?xml version="1.0" encoding="iso-8859-1"?>
<!-- Generator: Adobe Illustrator 16.0.0, SVG Export Plug-In . SVG Version: 6.00 Build 0)  -->
<!DOCTYPE svg PUBLIC "-//W3C//DTD SVG 1.1//EN" "http://www.w3.org/Graphics/SVG/1.1/DTD/svg11.dtd">
<svg version="1.1" id="Capa_1" xmlns="http://www.w3.org/2000/svg" xmlns:xlink="http://www.w3.org/1999/xlink" x="0px" y="0px"
	 width="792px" height="792px" viewBox="0 0 792 792" style="enable-background:new 0 0 792 792;" xml:space="preserve">
<g>
	<g  style="fill:rgb(52,156,207);">
		<path d="M577.332,287.928v-99.36c0,0,0-188.568-181.332-188.568C215.244,0,215.244,187.776,215.244,187.776v100.152h36V187.776
			c0,0,0-151.776,144.756-151.776s145.332,152.568,145.332,152.568v99.36H577.332z"/>
		<path d="M108,325.476v429.048C108,775.224,124.02,792,144.036,792h503.928C667.872,792,684,775.224,684,754.524V325.476
			c0-20.7-16.02-37.476-36.036-37.476H144.036C124.128,288,108,304.776,108,325.476z M648,324v433.729H144V324H648z"/>
		<path d="M360,574.488v66.672c0,0,0.108,37.728,36.072,37.728c35.964,0,35.928-37.728,35.928-37.728v-66.672
			c21.528-13.032,36-37.404,36-65.34c0-41.652-32.22-75.421-72-75.421c-39.78,0-72,33.769-72,75.421
			C324,537.048,338.472,561.456,360,574.488z"/>
	</g>
</g>
<g>
</g>
<g>
</g>
<g>
</g>
<g>
</g>
<g>
</g>
<g>
</g>
<g>
</g>
<g>
</g>
<g>
</g>
<g>
</g>
<g>
</g>
<g>
</g>
<g>
</g>
<g>
</g>
<g>
</g>
</svg>
